{"title":"Joy.2015.BRRip.720p.x264.AAC-PRiSTiNE [P2PDL]","uid":14380424,"size":834336561,"categoryP":"video","categoryS":"hd___movies","magnet":"?xt=urn:btih:862b0ce71ec670112e51fb25708af0dbd28c56c8&amp;dn=Joy.2015.BRRip.720p.x264.AAC-PRiSTiNE+%5BP2PDL%5D&amp;tr=udp%3A%2F%2Ftracker.leechers-paradise.org%3A6969&amp;tr=udp%3A%2F%2Fzer0day.ch%3A1337&amp;tr=udp%3A%2F%2Fopen.demonii.com%3A1337&amp;tr=udp%3A%2F%2Ftracker.coppersurfer.tk%3A6969&amp;tr=udp%3A%2F%2Fexodus.desync.com%3A6969","seeders":0,"leechers":0,"uploader":"VYTOP2PDL","files":7,"time":1461218168,"description":"____    ____ ____    ____ .___________.  ______   \r\n     /   /      /   / |           | /  __    \r\n    /   /      /   /  `---|  |----`|  |  |  | \r\n        /     _    _/       |  |     |  |  |  | \r\n       /        |  |         |  |     |  `--'  | \r\n    __/         |__|         |__|      ______/  \r\n                                                  \r\nPresenting Small Encodes with quality for years!\r\n                                                                                                   \r\n                                                                                                   \r\n\r\n\r\nJoy.2015.BRRip.720p.x264.AAC-PRiSTiNE\r\n\r\n\r\nGenre: Biography, Comedy, Drama  \nhttp://www.imdb.com/title/tt2446980/\r\n\r\n\r\nFormat                                   : MPEG-4\r\nFile size                                : 782 MiB\r\nDuration                                 : 2h 4mn\r\nOverall bit rate                         : 881 Kbps\r\n\r\nVideo\r\nFormat                                   : AVC\r\nBit rate                                 : 799 Kbps\r\nWidth                                    : 1 280 pixels\r\nHeight                                   : 688 pixels\r\nDisplay aspect ratio                     : 1.85:1\r\nFrame rate mode                          : Constant\r\nFrame rate                               : 23.976 fps\r\nBit depth                                : 8 bits\r\nStream size                              : 708 MiB (91%)\r\nWriting library                          : x264\r\n\r\nAudio\r\nFormat                                   : AAC\r\nBit rate mode                            : Variable\r\nBit rate                                 : 79.8 Kbps\r\nChannel(s)                               : 2 channels\r\nChannel positions                        : Front: L R\r\nSampling rate                            : 48.0 KHz \r\nStream size                              : 70.8 MiB (9%)\r\nLanguage                                 : English\r\n\r\nSubtitle                                 : Yes (English)\r\n\r\nScreen Shotss: (Click links to view)\r\n\r\n\r\n----------------------------------------------------------------------------------------------------\r\n\r\n\r\nEncoder Notes: Looking For Early Access To Anything You Can Provide WEBDL, DVDScr, DVDR, BluRay,\r\nDirect Audio, Music Releases and Seedboxes. If You Got anything to offer please contact us.\r\n\r\nSupport us by donating BC - 1FgwdzPsd1y25Gea8wP1qni35uGCtmkRCD\r\n\r\nFind us and join us!","torrent":{"xt":"urn:btih:862b0ce71ec670112e51fb25708af0dbd28c56c8","amp;dn":"Joy.2015.BRRip.720p.x264.AAC-PRiSTiNE+%5BP2PDL%5D","amp;tr":["udp%3A%2F%2Ftracker.leechers-paradise.org%3A6969","udp%3A%2F%2Fzer0day.ch%3A1337","udp%3A%2F%2Fopen.demonii.com%3A1337","udp%3A%2F%2Ftracker.coppersurfer.tk%3A6969","udp%3A%2F%2Fexodus.desync.com%3A6969"],"infoHash":"862b0ce71ec670112e51fb25708af0dbd28c56c8","infoHashBuffer":{"type":"Buffer","data":[134,43,12,231,30,198,112,17,46,81,251,37,112,138,240,219,210,140,86,200]},"announce":[],"urlList":[]}}